<svg viewBox="0 0 512 512" xmlns="http://www.w3.org/2000/svg">
  <!-- Background with rounded corners -->
  <rect width="512" height="512" rx="100" ry="100" fill="#2A2832"/>
  
  <!-- Very bold LM letters -->
  <g fill="#FFFFFF">
    <!-- L Shape - Extra bold -->
    <path d="M110 140 L110 372 L240 372 L240 310 L180 310 L180 140 Z" />
    
    <!-- M Shape - Extra bold -->
    <path d="M260 140 L320 270 L380 140 L432 140 L432 372 L360 372 L360 240 L320 340 L280 240 L280 372 L210 372 L210 140 Z" />
  </g>
  
  <!-- LIQUID Text (Top) -->
  <path fill="#FFFFFF" d="M174 100 L174 150 L184 150 L184 130 L194 130 L194 150 L204 150 L204 100 L194 100 L194 120 L184 120 L184 100 Z" />
  <path fill="#FFFFFF" d="M214 100 L214 150 L224 150 L224 100 Z" />
  <path fill="#FFFFFF" d="M234 100 L264 100 L264 110 L244 110 L244 120 L260 120 L260 130 L244 130 L244 140 L264 140 L264 150 L234 150 Z" />
  <path fill="#FFFFFF" d="M274 100 L284 100 L284 140 L304 140 L304 150 L274 150 Z" />
  <path fill="#FFFFFF" d="M314 100 L314 150 L324 150 L324 100 Z" />
  <path fill="#FFFFFF" d="M334 100 L364 100 L364 150 L354 150 L354 110 L344 110 L344 150 L334 150 Z" />
  
  <!-- MENÜ Text (Bottom) -->
  <path fill="#FFFFFF" d="M154 400 L164 400 L164 410 L174 410 L174 400 L184 400 L184 430 L174 430 L174 420 L164 420 L164 430 L154 430 Z" />
  <path fill="#FFFFFF" d="M194 400 L224 400 L224 430 L214 430 L214 410 L204 410 L204 430 L194 430 Z" />
  <path fill="#FFFFFF" d="M234 400 L264 400 L264 410 L244 410 L244 415 L264 415 L264 430 L234 430 L234 420 L254 420 L254 415 L234 415 Z" />
  <path fill="#FFFFFF" d="M274 400 L294 400 L294 430 L284 430 L284 410 L274 410 Z" />
  <path fill="#FFFFFF" d="M304 395 L314 395 L314 400 L304 400 Z M304 405 L314 405 L314 430 L304 430 Z" />
</svg>